<?xml version="1.0" encoding="UTF-8" standalone="no"?>
<svg width="423px" height="94px" viewBox="0 0 423 94" version="1.1" xmlns="http://www.w3.org/2000/svg" xmlns:xlink="http://www.w3.org/1999/xlink" xmlns:sketch="http://www.bohemiancoding.com/sketch/ns">
    <!-- Generator: sketchtool 3.4.4 (395) - http://www.bohemiancoding.com/sketch -->
    <title>space landscape</title>
    <desc>Created with sketchtool.</desc>
    <defs></defs>
    <g id="Phase-0" stroke="none" stroke-width="1" fill="none" fill-rule="evenodd" sketch:type="MSPage">
        <g id="Static/About" sketch:type="MSArtboardGroup" transform="translate(-857.000000, -1362.000000)" fill="#253A52">
            <g id="Footer" sketch:type="MSLayerGroup" transform="translate(0.000000, 1262.000000)">
                <g id="space-landscape" transform="translate(1068.500000, 147.000000) scale(-1, 1) translate(-1068.500000, -147.000000) translate(856.000000, 100.000000)" sketch:type="MSShapeGroup">
                    <g id="Fill-1-+-Fill-2-+-Fill-3" transform="translate(28.000000, 0.000000)">
                        <path d="M6.40021277,7.64164286 C6.37595745,7.78885714 6.35489362,7.938 6.33829787,8.08842857 C3.16021277,10.3725 1.39659574,12.6565714 2.02404255,14.0650714 C2.61574468,15.3932143 5.19829787,15.6381429 8.68212766,14.931 C10.956383,14.4687857 13.6129787,13.6015714 16.3519149,12.3640714 C18.9153191,11.205 21.1902128,9.88457143 22.9914894,8.56928571 C26.0629787,6.32635714 27.7544681,4.09821429 27.1378723,2.71414286 C26.4855319,1.25035714 23.4140426,1.10185714 19.3831915,2.09571429 C19.2625532,2.01214286 19.1406383,1.93114286 19.0161702,1.85464286 C24.2087234,0.459 28.3142553,0.649285714 29.1931915,2.62157143 C30.107234,4.67357143 27.3893617,8.33078571 22.6276596,11.5367143 C21.0555319,12.5955 19.2606383,13.6047857 17.2997872,14.4912857 C15.1704255,15.4536429 13.062766,16.1717143 11.0968085,16.6551429 C5.76893617,17.964 1.47702128,17.5429286 0.589148936,15.5500714 C-0.264893617,13.6343571 2.15170213,10.5467143 6.40021277,7.64164286" id="Fill-1" opacity="0.291044776"></path>
                        <path d="M6.29234043,8.73192857 C6.28851064,8.83157143 6.28468085,8.93057143 6.28468085,9.03085714 C6.28468085,9.13757143 6.28851064,9.24364286 6.29297872,9.34971429 C5.40382979,10.1442857 4.97106383,10.8199286 5.16382979,11.2519286 C5.32148936,11.6055 5.87808511,11.7520714 6.72191489,11.7173571 C8.51617021,11.6427857 11.6125532,10.7421429 14.9559574,9.23078571 C18.0529787,7.83128571 20.6214894,6.24278571 21.9753191,4.98214286 C22.7693617,4.24221429 23.1459574,3.61542857 22.9640426,3.20657143 C22.7470213,2.71928571 21.7710638,2.62285714 20.327234,2.85878571 C20.1855319,2.72571429 20.0393617,2.59842857 19.8887234,2.47628571 C22.9021277,1.81414286 25.1074468,1.944 25.5785106,3.00085714 C26.0119149,3.97478571 24.9325532,5.63721429 22.8459574,7.39928571 C21.1448936,8.83671429 18.773617,10.3397143 16.007234,11.5900714 C13.0493617,12.9272143 10.1782979,13.7314286 7.90468085,14.0104286 C5.44340426,14.3132143 3.68297872,14.0007857 3.27319149,13.0821429 C2.82638298,12.0786429 4.03595745,10.4560714 6.29234043,8.73192857" id="Fill-2" opacity="0.365671642"></path>
                        <path d="M6.31468085,9 C6.31468085,13.6536429 10.0602128,17.4259286 14.6808511,17.4259286 C19.3014894,17.4259286 23.0470213,13.6536429 23.0470213,9 C23.0470213,4.34635714 19.3014894,0.574071429 14.6808511,0.574071429 C10.0602128,0.574071429 6.31468085,4.34635714 6.31468085,9" id="Fill-3" opacity="0.565415112"></path>
                    </g>
                    <path d="M23.0830078,64.0859386 L37.9951172,48.0000011 L47.018,49.563 L60.067,41.531 L72.474,47.016 L86.192,23.008 L103.26,29.504 L124.744,14.502 L150.884,42.501 L162.646,34.001 L163.299,48 L186.172,48 L194.014,56.25 L201.202,67.125 L216.232,67.562 L239.758,75.531 L277.008,60.016 L295.539077,75.0000011 L298.573012,72.7500011 L301.84001,72.7500011 L308.91017,72.7500011 L315.234389,87.2968761 L345.025405,87.2968761 L368.497,75 L390.716,72.75 L424.044,94 L4.5,94 L0.748001099,72.7500011 L23.0830078,64.0859386 Z" id="Fill-6"></path>
                    <path d="M124.729492,14.6218261 C124.729492,14.6218261 131.546916,19.9819094 135.166374,22.1393642 C144.035916,27.4262428 161.775,38 161.775,38 L151.754,53 L124.308,15.667" id="Fill-7" opacity="0.497726213"></path>
                    <path d="M187.043,50.333 L157.418,52.333 L162.606079,34.0770264 L187.043,50.333 Z" id="Fill-8" opacity="0.504664179"></path>
                    <path d="M210.569,65 L222.332,63.333 L247.165,68.667 L275.958987,60.1835938 L293.74805,74.5546875 L301.839999,90.8945312 L234.531,86.333 C234.531,86.333 190.093,79 189.221,78.667 C188.35,78.333 189.657,53 189.657,53 L210.569,65 Z" id="Fill-9" opacity="0.502157183"></path>
                    <path d="M37.939209,48.100342 L36.303,61.333 L56.78,65.667 L60.067,41.516 L37.939209,48.100342 Z" id="Fill-10" opacity="0.499883396"></path>
                </g>
            </g>
        </g>
    </g>
</svg>